<?xml version="1.0" encoding="utf-8"?>
<!-- Generator: Adobe Illustrator 25.0.0, SVG Export Plug-In . SVG Version: 6.00 Build 0)  -->
<svg version="1.1" id="Capa_1" xmlns="http://www.w3.org/2000/svg" xmlns:xlink="http://www.w3.org/1999/xlink" x="0px" y="0px"
	 viewBox="0 0 1101.8 161.6" style="enable-background:new 0 0 1101.8 161.6;" xml:space="preserve">
<style type="text/css">
	.st0{fill:#1D1D1B;}
	.st1{fill:none;stroke:#1D1D1B;stroke-miterlimit:10;}
	.st2{fill:#FFFFFF;}
	.st3{fill:#FF8040;}
	.st4{fill:#FFFF40;}
	.st5{fill:#40FF40;}
	.st6{fill:#575756;}
	.st7{fill:#FF4040;}
</style>
<rect x="290.8" y="16.2" class="st2" width="32.3" height="32.3"/>
<rect x="290.8" y="64.6" class="st2" width="32.3" height="80.8"/>
<polygon class="st2" points="274.7,16.2 177.7,16.2 177.7,48.5 210,48.5 210,145.4 242.4,145.4 242.4,48.5 274.7,48.5 "/>
<polygon class="st2" points="418.1,48.5 418.1,16.2 339.3,16.2 339.3,16.2 339.3,145.4 339.3,145.4 418.1,145.4 418.1,113.1 
	371.6,113.1 371.6,96.9 403.9,96.9 403.9,64.6 371.6,64.6 371.6,48.5 "/>
<path class="st2" d="M764.5,16.2h-64.6v129.3h32.3v-32.3h16.2v32.3h32.3v-97L764.5,16.2z M732.2,80.8V48.5h16.2v32.3H732.2z"/>
<g>
	<polygon class="st2" points="829.1,64.6 829.1,16.2 796.8,16.2 796.8,145.4 829.1,145.4 829.1,96.9 861.4,96.9 861.4,145.4 
		893.7,145.4 893.7,80.8 869.5,80.8 893.7,56.6 893.7,16.2 861.4,16.2 861.4,48.5 845.3,64.6 	"/>
</g>
<path class="st2" d="M533.2,40.4L509,16.2h-72.7v129.3h32.3V96.9h16.2l16.2,16.2v32.3h32.3V105L509,80.8h24.2V40.4z M500.9,64.6
	h-32.3V48.5h32.3V64.6z"/>
<path class="st2" d="M1101.8,40.4l-24.2-24.2h-72.7v129.3h32.3V96.9h16.2l16.2,16.2v32.3h32.3V105l-24.2-24.2h24.2V40.4z
	 M1069.5,64.6h-32.3V48.5h32.3V64.6z"/>
<g>
	<polygon class="st2" points="656.4,16.2 616,56.6 616,56.6 575.6,16.2 551.4,16.2 551.4,145.4 583.7,145.4 583.7,59.2 599.9,80.8 
		599.9,145.4 632.2,145.4 632.2,80.8 648.3,59.2 648.3,145.4 680.7,145.4 680.7,16.2 	"/>
</g>
<polygon class="st2" points="988.7,48.5 988.7,16.2 909.9,16.2 909.9,16.2 909.9,145.4 909.9,145.4 988.7,145.4 988.7,113.1 
	942.2,113.1 942.2,96.9 974.5,96.9 974.5,64.6 942.2,64.6 942.2,48.5 "/>
<path class="st7" d="M32.3,4v24.2c0,2.2-1.8,4-4,4H4c-2.2,0-4-1.8-4-4V4c0-2.2,1.8-4,4-4h24.2C30.5,0,32.3,1.8,32.3,4z"/>
<path class="st7" d="M75.4,4v24.2c0,2.2-1.8,4-4,4H47.1c-2.2,0-4-1.8-4-4V4c0-2.2,1.8-4,4-4h24.2C73.6,0,75.4,1.8,75.4,4z"/>
<path class="st7" d="M118.5,4v24.2c0,2.2-1.8,4-4,4H90.2c-2.2,0-4-1.8-4-4V4c0-2.2,1.8-4,4-4h24.2C116.7,0,118.5,1.8,118.5,4z"/>
<path class="st6" d="M161.6,4v24.2c0,2.2-1.8,4-4,4h-24.2c-2.2,0-4-1.8-4-4V4c0-2.2,1.8-4,4-4h24.2C159.8,0,161.6,1.8,161.6,4z"/>
<path class="st4" d="M32.3,90.2v24.2c0,2.2-1.8,4-4,4H4c-2.2,0-4-1.8-4-4V90.2c0-2.2,1.8-4,4-4h24.2C30.5,86.2,32.3,88,32.3,90.2z"
	/>
<path class="st4" d="M75.4,90.2v24.2c0,2.2-1.8,4-4,4H47.1c-2.2,0-4-1.8-4-4V90.2c0-2.2,1.8-4,4-4h24.2C73.6,86.2,75.4,88,75.4,90.2
	z"/>
<path class="st6" d="M118.5,90.2v24.2c0,2.2-1.8,4-4,4H90.2c-2.2,0-4-1.8-4-4V90.2c0-2.2,1.8-4,4-4h24.2
	C116.7,86.2,118.5,88,118.5,90.2z"/>
<path class="st6" d="M161.6,90.2v24.2c0,2.2-1.8,4-4,4h-24.2c-2.2,0-4-1.8-4-4V90.2c0-2.2,1.8-4,4-4h24.2
	C159.8,86.2,161.6,88,161.6,90.2z"/>
<path class="st3" d="M32.3,47.1v24.2c0,2.2-1.8,4-4,4H4c-2.2,0-4-1.8-4-4V47.1c0-2.2,1.8-4,4-4h24.2C30.5,43.1,32.3,44.9,32.3,47.1z
	"/>
<path class="st3" d="M75.4,47.1v24.2c0,2.2-1.8,4-4,4H47.1c-2.2,0-4-1.8-4-4V47.1c0-2.2,1.8-4,4-4h24.2
	C73.6,43.1,75.4,44.9,75.4,47.1z"/>
<path class="st3" d="M118.5,47.1v24.2c0,2.2-1.8,4-4,4H90.2c-2.2,0-4-1.8-4-4V47.1c0-2.2,1.8-4,4-4h24.2
	C116.7,43.1,118.5,44.9,118.5,47.1z"/>
<path class="st3" d="M161.6,47.1v24.2c0,2.2-1.8,4-4,4h-24.2c-2.2,0-4-1.8-4-4V47.1c0-2.2,1.8-4,4-4h24.2
	C159.8,43.1,161.6,44.9,161.6,47.1z"/>
<path class="st5" d="M32.3,133.3v24.2c0,2.2-1.8,4-4,4H4c-2.2,0-4-1.8-4-4v-24.2c0-2.2,1.8-4,4-4h24.2
	C30.5,129.3,32.3,131.1,32.3,133.3z"/>
<path class="st5" d="M75.4,133.3v24.2c0,2.2-1.8,4-4,4H47.1c-2.2,0-4-1.8-4-4v-24.2c0-2.2,1.8-4,4-4h24.2
	C73.6,129.3,75.4,131.1,75.4,133.3z"/>
<path class="st5" d="M118.5,133.3v24.2c0,2.2-1.8,4-4,4H90.2c-2.2,0-4-1.8-4-4v-24.2c0-2.2,1.8-4,4-4h24.2
	C116.7,129.3,118.5,131.1,118.5,133.3z"/>
<path class="st5" d="M161.6,133.3v24.2c0,2.2-1.8,4-4,4h-24.2c-2.2,0-4-1.8-4-4v-24.2c0-2.2,1.8-4,4-4h24.2
	C159.8,129.3,161.6,131.1,161.6,133.3z"/>
</svg>
